<?xml version="1.0" standalone="no"?>
<!DOCTYPE svg PUBLIC "-//W3C//DTD SVG 20010904//EN"
 "http://www.w3.org/TR/2001/REC-SVG-20010904/DTD/svg10.dtd">
<svg version="1.0" xmlns="http://www.w3.org/2000/svg"
 width="280.000000pt" height="280.000000pt" viewBox="0 0 280.000000 280.000000"
 preserveAspectRatio="xMidYMid meet">
<metadata>
Created by potrace 1.14, written by Peter Selinger 2001-2017
</metadata>
<g transform="translate(0.000000,280.000000) scale(0.100000,-0.100000)"
fill="#000000" stroke="none">
<path d="M1274 2774 c3 -9 1 -12 -4 -9 -16 10 -24 -26 -11 -47 9 -15 9 -23 0
-34 -6 -7 -9 -20 -6 -28 3 -8 1 -17 -6 -20 -9 -3 -9 -5 1 -5 6 -1 12 -5 12
-11 0 -5 -4 -9 -9 -7 -5 1 -9 -2 -9 -8 0 -5 4 -9 9 -7 12 3 11 -15 -1 -23 -6
-4 -8 -11 -4 -16 3 -5 0 -16 -6 -24 -15 -18 -4 -36 18 -28 14 6 15 4 5 -8 -9
-12 -10 -18 -1 -27 8 -8 8 -15 -2 -26 -7 -9 -10 -22 -7 -30 3 -8 1 -17 -6 -20
-9 -3 -9 -5 1 -5 6 -1 12 -6 12 -11 0 -6 -3 -9 -7 -8 -5 2 -8 -1 -8 -7 0 -5 3
-9 8 -7 11 3 9 -16 -3 -23 -6 -4 -8 -11 -4 -16 3 -5 0 -16 -6 -24 -15 -18 -4
-36 18 -28 14 5 15 3 5 -8 -15 -15 -17 -33 -4 -25 11 7 6 -36 -7 -60 -5 -11
-8 -27 -7 -36 3 -15 -2 -17 -26 -13 -16 3 -29 1 -29 -5 0 -5 -5 -10 -11 -10
-5 0 -8 4 -5 8 2 4 -4 8 -14 8 -12 0 -16 -4 -10 -11 11 -13 -34 -15 -46 -2 -5
4 -1 5 9 1 9 -3 17 -2 17 4 0 16 -29 8 -45 -14 -13 -18 -14 -18 -9 6 3 14 2
20 -3 14 -8 -11 -43 -15 -43 -5 0 4 -18 6 -40 6 -22 0 -40 -3 -40 -7 0 -5 -5
-8 -11 -8 -5 0 -8 4 -5 8 2 4 -4 8 -14 8 -12 0 -16 -4 -10 -11 11 -13 -34 -15
-46 -2 -5 4 -1 5 9 1 9 -3 17 -2 17 4 0 16 -29 8 -45 -14 -13 -18 -14 -18 -9
6 3 14 2 20 -3 14 -8 -11 -43 -15 -43 -5 0 4 -18 6 -40 6 -26 0 -40 -4 -40
-12 0 -7 -5 -13 -11 -13 -5 0 -8 4 -4 9 3 5 1 12 -5 16 -5 3 -10 0 -10 -7 0
-8 -3 -9 -8 -3 -4 6 -14 11 -22 13 -10 3 -9 -3 5 -19 l20 -22 -22 14 c-13 8
-23 16 -23 19 0 3 -18 5 -40 5 -26 0 -40 -4 -40 -12 0 -7 -5 -13 -11 -13 -5 0
-8 4 -4 9 3 5 1 12 -5 16 -5 3 -10 0 -10 -7 0 -8 -3 -9 -8 -3 -8 12 -27 13
-38 3 -10 -11 -26 -10 -20 1 7 11 -21 8 -31 -4 -5 -4 -1 -4 7 0 13 8 13 7 1
-8 -14 -18 -22 -22 -20 -9 1 4 1 14 0 22 -1 13 -2 13 -11 0 -5 -8 -10 -10 -10
-4 0 6 -7 11 -15 11 -12 0 -12 -3 -2 -16 10 -12 9 -13 -1 -7 -7 4 -19 5 -27 2
-11 -4 -13 -11 -5 -31 7 -17 7 -24 0 -20 -6 3 -10 13 -10 21 0 8 -4 14 -9 14
-6 0 -9 -9 -8 -20 1 -11 5 -20 9 -20 4 0 8 -5 8 -11 0 -5 -4 -8 -8 -5 -5 3 -9
-2 -9 -10 0 -9 6 -13 16 -9 8 3 12 3 9 -1 -4 -4 -3 -16 3 -28 9 -19 9 -19 -4
-3 -17 21 -24 22 -24 2 0 -8 4 -15 9 -15 4 0 8 -5 8 -11 0 -5 -4 -8 -8 -5 -5
3 -9 -2 -9 -10 0 -9 6 -13 16 -9 8 3 12 3 9 -1 -4 -4 -3 -16 3 -28 9 -19 9
-19 -4 -3 -17 21 -24 22 -24 2 0 -8 4 -15 9 -15 4 0 8 -5 8 -11 0 -5 -4 -8 -8
-5 -5 3 -9 -2 -9 -10 0 -9 6 -13 15 -9 13 5 13 3 1 -11 -19 -23 -19 -116 -1
-130 12 -9 13 -12 2 -19 -9 -5 -11 -4 -6 3 4 7 2 12 -3 12 -6 0 -11 -7 -11
-15 0 -8 5 -15 10 -15 6 0 10 -5 10 -11 0 -5 -4 -8 -9 -5 -15 9 -8 -58 8 -70
11 -9 12 -12 1 -19 -9 -5 -11 -4 -6 3 4 7 2 12 -3 12 -6 0 -11 -7 -11 -15 0
-8 5 -15 10 -15 6 0 10 -5 10 -11 0 -5 -4 -8 -9 -5 -15 9 -8 -58 8 -70 11 -9
12 -12 1 -19 -9 -5 -11 -4 -6 3 4 7 2 12 -3 12 -6 0 -11 -7 -11 -15 0 -8 5
-15 10 -15 6 0 10 -5 10 -11 0 -5 -4 -8 -9 -5 -15 9 -8 -58 8 -70 11 -9 12
-12 1 -19 -9 -5 -11 -4 -6 3 4 7 2 12 -3 12 -6 0 -11 -7 -11 -15 0 -8 5 -15
10 -15 6 0 10 -5 10 -11 0 -5 -4 -8 -9 -5 -15 9 -8 -58 8 -70 11 -9 12 -12 1
-19 -9 -5 -11 -4 -6 3 4 7 3 12 -2 12 -5 0 -9 -13 -8 -30 0 -17 4 -30 8 -30 5
0 8 -5 8 -11 0 -5 -4 -8 -8 -5 -5 3 -9 -2 -9 -10 0 -9 6 -13 16 -9 8 3 12 3 9
-1 -4 -4 -3 -16 3 -28 9 -19 9 -19 -4 -4 -17 22 -24 23 -24 3 0 -8 4 -15 9
-15 4 0 8 -5 8 -11 0 -5 -4 -8 -8 -5 -5 3 -9 -2 -9 -10 0 -9 6 -13 16 -9 8 3
12 3 9 -1 -4 -4 -3 -16 3 -28 9 -19 9 -19 -4 -4 -17 22 -24 23 -24 3 0 -8 4
-15 9 -15 4 0 8 -5 8 -11 0 -5 -4 -8 -8 -5 -5 3 -9 -2 -9 -10 0 -9 6 -13 16
-9 8 3 12 3 9 -1 -4 -4 -3 -16 3 -28 9 -19 9 -19 -4 -4 -17 22 -24 23 -24 3 0
-8 4 -15 9 -15 4 0 8 -5 8 -11 0 -5 -4 -8 -8 -5 -5 3 -9 -2 -9 -10 0 -8 6 -13
12 -10 6 2 12 -2 12 -10 0 -7 -4 -11 -9 -8 -18 11 -20 -27 -2 -41 11 -7 16
-17 11 -21 -4 -4 -7 -2 -7 4 0 23 -16 11 -18 -13 -1 -14 3 -25 9 -25 5 0 7 5
3 12 -5 7 -3 8 6 3 10 -6 9 -11 -5 -22 -11 -7 -13 -13 -7 -13 7 0 12 -5 12
-11 0 -5 -4 -7 -10 -4 -5 3 -10 -1 -10 -10 0 -10 6 -15 13 -12 8 3 13 -3 14
-17 0 -11 -1 -15 -4 -8 -8 20 -18 14 -21 -13 -1 -14 3 -25 9 -25 5 0 7 5 3 12
-5 7 -3 8 6 3 10 -6 9 -11 -5 -22 -11 -7 -13 -13 -7 -13 7 0 12 -5 12 -11 0
-5 -4 -7 -10 -4 -5 3 -10 -1 -10 -10 0 -10 6 -15 13 -12 8 3 13 -3 14 -17 0
-11 -1 -15 -4 -8 -9 23 -20 12 -20 -23 0 -19 4 -32 8 -30 8 6 22 -25 14 -33
-3 -3 -5 0 -5 6 0 7 -4 12 -10 12 -17 0 -11 -27 8 -35 16 -6 16 -7 0 -19 -18
-13 -21 -59 -3 -52 6 2 11 -6 12 -18 0 -11 -1 -15 -4 -8 -6 16 -23 15 -23 -2
0 -8 8 -17 18 -21 16 -6 16 -7 0 -19 -18 -13 -21 -59 -3 -52 6 2 11 -6 12 -18
0 -11 -1 -15 -4 -8 -9 23 -21 12 -19 -18 0 -17 4 -30 8 -30 5 0 8 -5 8 -11 0
-5 -4 -8 -8 -5 -5 3 -9 -2 -9 -10 0 -9 6 -13 16 -9 8 3 12 3 9 -1 -4 -4 -3
-16 3 -28 9 -19 9 -19 -4 -3 -17 21 -24 22 -24 2 0 -8 4 -15 9 -15 4 0 8 -5 8
-11 0 -5 -4 -8 -8 -5 -5 3 -9 -2 -9 -10 0 -9 6 -13 16 -9 14 4 14 4 0 -8 -14
-10 -14 -14 -2 -25 8 -8 11 -22 8 -31 -5 -17 4 -18 121 -20 131 -1 166 7 143
35 -9 11 -8 14 2 14 8 0 6 5 -6 14 -18 13 -18 13 1 24 10 6 14 12 9 12 -6 0
-11 9 -12 20 -1 11 3 18 8 14 12 -7 7 19 -6 29 -6 4 -4 11 5 17 12 8 12 10 1
10 -11 0 -11 3 -1 15 10 12 9 15 -6 15 -17 0 -17 1 2 15 10 8 15 15 10 15 -5
0 -3 6 3 13 8 10 7 14 -4 14 -8 0 -11 -5 -8 -10 3 -6 1 -7 -6 -3 -9 6 -9 11 0
22 6 8 8 14 4 14 -4 0 -2 7 5 15 10 11 10 18 1 29 -9 11 -9 15 1 19 11 4 11 6
0 6 -10 1 -10 6 -2 21 6 11 8 20 4 20 -3 0 -1 6 5 13 8 10 7 14 -4 14 -8 0
-11 -5 -8 -10 3 -6 1 -7 -6 -3 -9 6 -9 11 0 22 6 8 8 14 4 14 -4 0 -2 7 5 15
10 11 10 18 1 29 -9 11 -9 15 1 19 11 4 11 6 0 6 -10 1 -10 6 -2 21 6 11 8 20
4 20 -3 0 -1 6 5 13 8 10 7 14 -4 14 -8 0 -11 -5 -8 -10 3 -6 1 -7 -6 -3 -9 6
-9 11 0 22 6 8 8 14 4 14 -4 0 -2 7 5 15 10 11 10 18 1 29 -9 11 -9 15 1 19
11 4 11 6 0 6 -10 1 -10 6 -2 21 6 11 8 20 4 20 -3 0 -1 6 5 13 8 10 7 14 -4
14 -8 0 -11 -5 -8 -10 3 -6 1 -7 -6 -3 -9 6 -9 11 0 22 6 8 8 14 4 14 -4 0 -2
7 5 15 10 11 10 18 1 29 -9 11 -9 15 1 19 11 4 10 6 0 6 -8 1 -10 6 -5 14 14
23 12 39 -5 32 -13 -5 -12 -1 4 16 10 12 13 19 7 15 -16 -9 -17 6 -1 22 8 8 8
12 1 12 -16 0 -24 28 -11 36 7 4 8 3 4 -4 -4 -7 -2 -12 3 -12 6 0 9 10 7 23
-3 12 -5 26 -5 30 -1 5 -7 5 -13 2 -7 -4 -4 1 6 9 11 9 15 16 10 16 -5 0 -10
9 -11 20 -1 11 3 18 8 14 12 -7 7 19 -6 29 -6 4 -4 11 5 17 12 8 12 10 1 10
-11 0 -11 3 -1 15 10 12 9 15 -6 15 -16 0 -17 2 -4 10 8 5 11 10 5 10 -5 0 -3
5 5 10 8 5 10 10 3 10 -12 0 -12 17 0 37 4 6 2 15 -4 19 -8 5 -9 3 -4 -6 6 -9
4 -11 -5 -5 -10 6 -9 11 5 22 11 7 14 13 9 13 -5 0 -10 9 -11 20 -1 11 3 18 8
14 12 -7 7 19 -6 29 -6 4 -4 11 5 17 12 8 12 10 1 10 -11 0 -11 3 -1 15 10 12
9 15 -6 15 -16 0 -17 2 -4 10 8 5 11 10 5 10 -5 0 -3 5 5 10 8 5 10 10 3 10
-12 0 -12 17 0 37 4 6 2 15 -4 19 -8 5 -9 3 -4 -6 6 -9 4 -11 -5 -5 -10 6 -9
11 5 22 11 7 14 13 9 13 -5 0 -10 9 -11 20 -1 11 3 18 8 14 12 -7 7 19 -6 29
-6 4 -4 11 5 17 12 8 12 10 1 10 -11 0 -11 3 -1 15 10 12 9 15 -6 15 -16 0
-17 2 -4 10 8 5 11 10 5 10 -5 0 -3 5 5 10 8 5 10 10 3 10 -12 0 -12 17 1 38
4 7 3 19 -3 26 -7 9 -7 16 2 26 8 9 9 11 0 6 -6 -3 -15 -2 -18 4 -4 6 -1 9 7
8 8 -2 12 6 11 22 -2 16 0 20 5 10 4 -8 13 -16 20 -18 8 -1 11 2 8 7 -4 5 -2
12 4 16 5 3 10 -1 10 -9 0 -8 4 -18 10 -21 6 -4 7 1 3 12 -5 15 -3 16 7 6 11
-10 17 -9 32 4 18 16 19 16 13 -3 -6 -15 -3 -14 16 6 12 14 20 18 17 9 -4 -9
-2 -22 3 -30 6 -10 9 -8 10 11 0 23 1 23 9 5 5 -12 9 -15 9 -5 1 11 4 11 13 2
9 -9 16 -8 30 5 18 16 19 16 13 -3 -6 -15 -3 -14 16 6 12 14 20 18 17 9 -4 -9
-2 -22 3 -30 6 -10 9 -8 10 11 0 23 1 23 9 5 5 -12 9 -15 9 -5 1 11 4 11 13 2
9 -9 16 -8 32 6 11 9 16 11 12 5 -4 -7 -4 -13 1 -14 4 0 17 -2 28 -4 10 -2 25
1 32 7 10 8 13 7 13 -3 0 -11 2 -11 10 1 5 8 10 11 10 6 0 -5 6 -3 14 3 12 10
14 8 9 -11 -3 -13 -1 -19 4 -13 4 6 17 10 28 10 11 0 26 4 33 9 8 5 12 4 12
-5 0 -11 2 -11 10 1 5 8 10 11 10 6 0 -5 6 -3 14 3 11 10 17 8 25 -6 6 -11 11
-13 11 -5 0 10 4 9 16 -2 8 -9 20 -14 25 -11 14 9 11 -2 -7 -19 -8 -9 -11 -16
-5 -16 6 0 11 -5 11 -11 0 -5 -4 -8 -9 -4 -5 3 -13 0 -17 -6 -4 -7 -3 -9 3 -6
6 4 16 0 23 -8 10 -12 10 -18 0 -30 -7 -8 -10 -21 -7 -29 3 -8 1 -17 -6 -20
-9 -3 -9 -5 1 -5 6 -1 12 -5 12 -11 0 -5 -3 -9 -7 -7 -5 1 -8 -3 -8 -8 0 -6 3
-9 7 -8 12 4 10 -15 -2 -22 -6 -4 -8 -11 -4 -16 3 -5 0 -16 -6 -24 -15 -18 -4
-36 18 -28 14 6 15 4 5 -8 -9 -12 -10 -18 -1 -27 8 -8 8 -15 -2 -26 -7 -9 -10
-22 -7 -30 3 -8 1 -17 -6 -20 -9 -3 -9 -5 1 -5 6 -1 12 -5 12 -11 0 -5 -3 -9
-8 -7 -4 1 -7 -2 -7 -8 0 -5 3 -9 8 -8 11 4 9 -15 -3 -22 -6 -4 -8 -11 -4 -16
3 -5 0 -16 -6 -24 -15 -18 -4 -36 18 -28 14 5 14 3 -3 -17 -11 -13 -14 -20 -7
-16 17 10 15 -4 -5 -28 -17 -20 -17 -20 1 -6 18 14 19 14 7 -8 -9 -18 -9 -22
1 -20 7 2 12 -1 11 -7 -1 -5 14 -11 33 -11 20 -1 31 3 27 9 -3 6 -1 7 6 3 6
-4 9 -11 6 -16 -3 -5 0 -12 6 -16 7 -4 9 -3 6 3 -4 6 0 14 8 17 9 3 18 -1 22
-9 5 -13 7 -13 20 2 8 10 12 13 9 6 -4 -6 -2 -15 4 -18 6 -4 9 -1 8 5 -2 7 11
13 29 15 18 1 30 -1 27 -6 -10 -16 9 -9 23 8 8 10 12 13 9 6 -4 -6 -1 -15 5
-19 8 -4 9 -3 5 4 -4 7 -3 12 1 12 5 0 9 16 10 35 0 23 -3 33 -11 28 -8 -5 -8
-3 0 8 15 19 26 51 15 45 -10 -7 -6 137 4 155 5 7 4 10 -2 6 -12 -8 -10 134 2
154 5 7 4 10 -2 6 -12 -7 -9 105 3 124 4 8 3 9 -4 5 -16 -10 -15 7 1 23 10 11
9 12 -2 6 -11 -6 -13 -4 -8 9 4 10 7 23 7 30 0 7 7 13 15 13 8 0 15 -5 15 -10
0 -5 8 -1 18 10 9 10 14 14 10 9 -20 -26 7 -31 36 -7 14 12 16 11 10 -5 -4
-15 -1 -14 17 6 12 14 20 18 17 9 -4 -9 -2 -22 3 -30 6 -10 9 -8 10 11 0 23 1
23 9 5 5 -12 9 -15 9 -5 1 11 4 11 13 2 9 -9 16 -8 32 6 11 9 16 12 13 6 -12
-20 26 -27 40 -8 12 17 13 17 13 -2 0 -14 2 -16 9 -5 7 11 9 11 13 0 4 -11 10
-10 27 5 22 20 22 20 16 0 -6 -18 -6 -18 8 -1 15 18 15 18 22 -2 3 -12 11 -18
17 -15 6 4 5 10 -3 15 -10 6 -10 9 -2 9 6 0 14 -4 17 -8 6 -10 127 -9 144 1 7
5 12 3 12 -5 0 -8 3 -9 8 -3 6 9 24 11 62 6 6 0 10 -8 10 -16 0 -8 4 -15 9
-15 10 0 7 -32 -4 -50 -3 -6 -1 -10 4 -10 6 0 11 -5 11 -11 0 -5 -4 -8 -8 -5
-4 2 -9 -4 -9 -15 -1 -10 3 -19 9 -19 6 0 8 -12 4 -30 -3 -19 -2 -29 4 -25 6
3 7 -1 4 -9 -3 -9 -11 -13 -18 -9 -6 3 -8 3 -4 -2 4 -4 2 -15 -5 -24 -10 -14
-10 -14 4 -3 14 10 18 10 23 -3 3 -9 2 -13 -4 -10 -6 3 -10 3 -11 -2 0 -4 -2
-16 -4 -26 -2 -10 1 -14 7 -10 8 4 9 -6 5 -31 -3 -21 -2 -34 3 -31 6 3 7 -1 4
-9 -3 -9 -11 -13 -18 -9 -6 3 -8 3 -4 -2 4 -4 2 -15 -5 -24 -10 -14 -10 -14 4
-3 14 10 18 10 23 -3 3 -9 2 -13 -4 -10 -6 3 -10 3 -11 -2 0 -4 -2 -16 -4 -26
-2 -9 1 -15 6 -11 5 3 9 -2 9 -11 0 -9 -4 -13 -10 -10 -5 3 -10 1 -10 -4 0 -6
5 -11 10 -11 6 0 10 -5 10 -11 0 -5 -4 -8 -8 -5 -4 2 -9 -4 -9 -15 -1 -10 2
-19 8 -19 5 0 9 -5 9 -11 0 -5 -4 -8 -8 -5 -4 2 -9 -4 -9 -15 -2 -17 1 -18 13
-8 12 10 13 9 8 -5 -3 -9 -11 -16 -17 -16 -6 0 -2 -7 9 -16 10 -8 13 -13 7 -9
-7 3 -13 2 -13 -2 0 -5 6 -15 13 -22 10 -11 10 -13 0 -7 -7 4 -13 4 -14 -1 0
-4 -2 -16 -4 -26 -2 -9 1 -15 6 -11 5 3 9 -2 9 -11 0 -9 -4 -13 -10 -10 -5 3
-10 1 -10 -4 0 -6 5 -11 10 -11 6 0 10 -5 10 -11 0 -5 -4 -8 -8 -5 -4 2 -9 -4
-9 -15 -1 -10 3 -19 9 -19 6 0 8 -12 4 -30 -3 -19 -2 -29 4 -25 6 3 7 -1 4 -9
-3 -9 -11 -13 -18 -9 -6 3 -8 3 -4 -2 4 -4 2 -15 -5 -24 -10 -14 -10 -14 4 -3
14 10 18 10 23 -3 3 -9 2 -13 -4 -10 -6 3 -10 3 -11 -2 0 -4 -2 -16 -4 -26 -2
-10 1 -14 7 -10 8 4 9 -6 5 -31 -3 -21 -2 -34 3 -31 6 3 7 -1 4 -9 -3 -9 -11
-13 -18 -9 -6 3 -8 3 -4 -2 4 -4 2 -15 -5 -24 -10 -14 -10 -14 4 -3 14 10 18
10 23 -3 3 -9 2 -13 -4 -10 -6 3 -10 3 -11 -2 0 -4 -2 -16 -4 -26 -2 -9 1 -15
6 -11 5 3 9 -2 9 -11 0 -9 -4 -13 -10 -10 -5 3 -10 1 -10 -4 0 -6 5 -11 10
-11 6 0 10 -5 10 -11 0 -5 -4 -8 -8 -5 -4 2 -9 -4 -9 -15 -1 -10 2 -19 8 -19
5 0 9 -5 9 -11 0 -5 -4 -8 -8 -5 -4 2 -9 -4 -9 -15 -2 -17 1 -18 13 -8 12 10
13 9 8 -5 -3 -9 -11 -16 -17 -16 -6 0 -2 -7 9 -16 10 -8 13 -13 7 -9 -7 3 -13
2 -13 -2 0 -5 6 -15 13 -22 10 -11 10 -13 0 -7 -7 4 -13 4 -14 -1 0 -4 -2 -16
-4 -26 -2 -9 1 -15 6 -11 5 3 9 -2 9 -11 0 -9 -4 -13 -10 -10 -5 3 -10 1 -10
-4 0 -6 5 -11 10 -11 6 0 10 -5 10 -11 0 -5 -4 -8 -8 -5 -4 2 -9 -4 -9 -15 -1
-10 3 -19 9 -19 6 0 8 -12 4 -30 -3 -19 -2 -29 4 -25 6 3 7 -1 4 -9 -3 -9 -11
-13 -18 -9 -6 3 -8 3 -4 -2 4 -4 2 -15 -5 -24 -10 -14 -10 -14 4 -3 14 10 18
10 23 -3 3 -9 2 -13 -4 -10 -6 3 -10 3 -11 -2 0 -4 -2 -16 -4 -26 -2 -9 0 -15
5 -12 4 3 10 -4 13 -15 3 -11 0 -23 -5 -27 -6 -3 -8 -1 -4 5 3 6 2 13 -3 16
-11 7 -9 -13 3 -33 6 -10 5 -12 -2 -7 -7 4 -12 3 -12 -3 0 -5 8 -12 18 -14 14
-4 14 -5 -3 -6 -17 -1 -18 -3 -5 -11 13 -8 13 -10 1 -10 -11 0 -10 -4 5 -16
10 -8 13 -13 7 -9 -7 3 -13 1 -13 -6 0 -8 -5 -7 -17 2 -16 13 -17 12 -4 -3 7
-10 21 -18 30 -19 12 0 11 -2 -4 -9 -12 -5 -14 -9 -6 -9 8 -1 11 -4 8 -8 -4
-3 0 -14 9 -24 10 -11 12 -19 5 -24 -6 -3 -11 -10 -11 -15 0 -11 259 -10 266
1 3 5 0 9 -5 9 -6 0 -11 5 -11 11 0 5 6 7 13 3 7 -5 6 0 -3 11 -14 17 -13 18
4 11 20 -7 20 -7 0 15 -10 12 -14 19 -8 16 16 -9 25 18 11 32 -9 9 -8 17 1 32
8 12 9 18 4 15 -5 -3 -10 18 -11 50 0 31 -4 61 -8 66 -3 6 -1 8 4 5 6 -4 14 0
17 9 3 8 2 13 -3 10 -5 -3 -12 1 -15 10 -3 8 -2 13 3 10 12 -8 22 19 11 30
-10 11 -18 94 -9 88 4 -2 10 3 13 12 3 8 2 13 -3 10 -5 -3 -12 1 -15 10 -3 8
-2 13 3 10 12 -8 22 19 11 30 -10 11 -18 94 -9 88 4 -2 10 3 13 12 3 8 2 13
-3 10 -5 -3 -12 1 -15 10 -3 8 -2 13 3 10 12 -8 22 19 11 30 -10 11 -18 94 -9
88 4 -2 10 3 13 12 3 8 2 13 -3 10 -5 -3 -12 1 -15 10 -3 8 -2 13 3 10 12 -8
22 19 11 30 -10 11 -18 94 -9 88 4 -2 10 3 13 12 3 8 2 13 -3 10 -5 -3 -12 1
-15 10 -3 8 -2 13 3 10 12 -8 22 19 11 30 -10 11 -18 94 -9 88 4 -2 10 3 13
12 3 8 2 13 -3 10 -5 -3 -12 1 -15 10 -3 8 -2 13 3 10 12 -8 22 19 11 30 -10
11 -18 94 -9 88 4 -2 10 3 13 12 3 8 2 13 -3 10 -5 -3 -12 1 -15 10 -3 8 -2
13 3 10 12 -8 22 19 11 30 -10 11 -18 94 -9 88 4 -2 10 3 13 12 3 8 2 13 -3
10 -5 -3 -12 1 -15 10 -3 8 -2 13 3 10 12 -8 22 19 11 30 -10 11 -18 94 -9 88
4 -2 10 3 13 12 3 8 2 13 -3 10 -5 -3 -12 1 -15 10 -3 8 -2 13 3 10 12 -8 22
19 11 30 -10 11 -18 94 -9 88 4 -2 10 3 13 12 3 8 2 13 -3 10 -5 -3 -12 1 -15
10 -3 8 -2 13 3 10 12 -8 22 19 11 30 -10 11 -18 94 -9 88 4 -2 10 3 13 12 3
8 2 13 -3 10 -5 -3 -12 1 -15 10 -3 8 -2 13 3 10 12 -8 22 19 11 30 -16 17
-15 94 0 104 12 8 12 10 1 10 -7 0 -11 6 -7 15 3 8 0 14 -7 12 -7 -1 -11 4 -9
11 1 8 -2 11 -7 7 -6 -3 -8 -13 -5 -23 5 -15 4 -15 -6 1 -6 9 -15 15 -21 12
-5 -4 -9 -2 -9 2 0 5 -18 8 -40 8 -22 0 -40 -3 -40 -7 0 -5 -5 -8 -11 -8 -5 0
-8 4 -5 8 2 4 -4 8 -14 8 -12 0 -16 -4 -10 -11 11 -13 -34 -15 -46 -2 -5 4 -1
5 9 1 9 -3 17 -2 17 4 0 16 -29 8 -45 -14 -13 -18 -14 -18 -9 6 3 14 2 20 -3
14 -8 -12 -43 -15 -43 -4 0 8 -77 6 -86 -3 -4 -4 -14 -7 -23 -7 -12 0 -13 2
-3 8 8 6 2 9 -17 9 -27 0 -28 -2 -12 -16 9 -9 12 -13 7 -8 -6 4 -18 7 -28 7
-10 0 -18 5 -18 11 0 6 -8 3 -17 -8 -10 -10 -15 -14 -10 -9 12 16 8 22 -15 23
-16 2 -19 0 -10 -6 10 -6 9 -10 -7 -14 -11 -3 -25 1 -32 9 -13 16 -43 10 -74
-15 -18 -15 -19 -15 -7 1 9 11 10 18 2 23 -5 3 -10 1 -10 -4 0 -6 -5 -11 -11
-11 -5 0 -8 4 -5 8 3 5 -1 9 -9 9 -8 0 -12 -4 -10 -8 9 -14 -24 -17 -36 -3
-13 16 -43 11 -74 -15 -18 -15 -19 -15 -7 1 9 11 10 18 2 23 -5 3 -10 1 -10
-4 0 -6 -5 -11 -11 -11 -5 0 -8 4 -5 8 3 5 -1 9 -9 9 -8 0 -12 -4 -10 -8 9
-14 -25 -18 -39 -4 -11 11 -16 12 -20 2 -3 -6 -4 0 -2 15 1 15 -1 25 -5 22 -5
-3 -9 0 -9 5 0 6 5 11 10 11 6 0 10 5 10 11 0 5 -3 8 -8 5 -4 -2 -7 15 -8 39
0 24 3 42 7 39 4 -2 4 10 -2 28 -11 41 -11 41 3 32 7 -5 8 -3 3 7 -12 18 -13
79 -2 79 4 0 5 5 2 10 -4 6 -12 7 -18 3 -9 -5 -9 -3 -1 8 6 8 10 39 9 69 0 30
3 65 7 78 4 13 4 21 0 18 -4 -3 -7 33 -6 80 1 48 -2 84 -8 84 -5 0 -6 5 -3 10
4 6 11 7 17 4 6 -4 8 -3 5 3 -4 6 -60 10 -137 11 -112 0 -131 -2 -126 -14z
m-14 -249 c-7 -9 -15 -13 -17 -11 -7 7 7 26 19 26 6 0 6 -6 -2 -15z m0 -240
c-7 -9 -15 -13 -17 -11 -7 7 7 26 19 26 6 0 6 -6 -2 -15z m10 -125 c0 -5 -5
-10 -11 -10 -5 0 -7 5 -4 10 3 6 8 10 11 10 2 0 4 -4 4 -10z m-769 -57 c13
-16 12 -17 -3 -4 -10 7 -18 15 -18 17 0 8 8 3 21 -13z m115 5 c4 -7 4 -10 -1
-6 -4 4 -15 2 -24 -5 -14 -11 -14 -10 -2 6 16 20 18 21 27 5z m160 0 c4 -7 4
-10 -1 -6 -4 4 -15 2 -24 -5 -14 -11 -14 -10 -2 6 16 20 18 21 27 5z m204 8
c0 -2 -8 -10 -17 -17 -16 -13 -17 -12 -4 4 13 16 21 21 21 13z m36 -8 c4 -7 4
-10 -1 -6 -4 4 -15 2 -24 -5 -14 -11 -14 -10 -2 6 16 20 18 21 27 5z m209 -6
c-3 -3 -11 0 -18 7 -9 10 -8 11 6 5 10 -3 15 -9 12 -12z m485 8 c0 -5 -5 -10
-11 -10 -5 0 -7 5 -4 10 3 6 8 10 11 10 2 0 4 -4 4 -10z m160 0 c0 -5 -5 -10
-11 -10 -5 0 -7 5 -4 10 3 6 8 10 11 10 2 0 4 -4 4 -10z m225 0 c-3 -5 -12
-10 -18 -10 -7 0 -6 4 3 10 19 12 23 12 15 0z m41 -2 c4 -7 4 -10 -1 -6 -4 4
-15 2 -24 -5 -14 -11 -14 -10 -2 6 16 20 18 21 27 5z m204 8 c0 -2 -8 -10 -17
-17 -16 -13 -17 -12 -4 4 13 16 21 21 21 13z m36 -8 c4 -7 4 -10 -1 -6 -4 4
-15 2 -24 -5 -14 -11 -14 -10 -2 6 16 20 18 21 27 5z m-1395 -261 c-10 -9 -11
-8 -5 6 3 10 9 15 12 12 3 -3 0 -11 -7 -18z m120 0 c-10 -9 -11 -8 -5 6 3 10
9 15 12 12 3 -3 0 -11 -7 -18z m680 0 c-10 -9 -11 -8 -5 6 3 10 9 15 12 12 3
-3 0 -11 -7 -18z m-1431 -22 c0 -2 -6 -8 -13 -14 -10 -8 -14 -7 -14 2 0 8 6
14 14 14 7 0 13 -1 13 -2z m-10 -90 c0 -5 -5 -3 -10 5 -5 8 -10 20 -10 25 0 6
5 3 10 -5 5 -8 10 -19 10 -25z m-3 -107 c2 -17 0 -19 -7 -8 -5 8 -6 18 -4 22
8 12 10 10 11 -14z m923 -63 c-7 -9 -15 -13 -17 -11 -7 7 7 26 19 26 6 0 6 -6
-2 -15z m-923 -57 c2 -17 0 -19 -7 -8 -5 8 -6 18 -4 22 8 12 10 10 11 -14z m0
-120 c2 -17 0 -19 -7 -8 -5 8 -6 18 -4 22 8 12 10 10 11 -14z m923 -63 c-7 -9
-15 -13 -17 -11 -7 7 7 26 19 26 6 0 6 -6 -2 -15z m-923 -57 c2 -17 0 -19 -7
-8 -5 8 -6 18 -4 22 8 12 10 10 11 -14z m9 -78 c0 -12 -4 -16 -9 -11 -5 5 -6
14 -3 20 10 15 12 14 12 -9z m-2 -966 c3 -8 2 -12 -4 -9 -6 3 -10 10 -10 16 0
14 7 11 14 -7z m251 -194 c-3 -5 -12 -10 -18 -10 -7 0 -6 4 3 10 19 12 23 12
15 0z"/>
<path d="M1236 2702 c-3 -5 1 -9 9 -9 8 0 15 4 15 9 0 4 -4 8 -9 8 -6 0 -12
-4 -15 -8z"/>
<path d="M1236 2462 c-3 -5 1 -9 9 -9 8 0 15 4 15 9 0 4 -4 8 -9 8 -6 0 -12
-4 -15 -8z"/>
<path d="M1239 2217 c6 -8 7 -18 3 -22 -4 -5 -1 -5 6 -1 10 6 10 11 1 22 -6 8
-14 14 -16 14 -3 0 0 -6 6 -13z"/>
<path d="M1191 1834 c0 -11 3 -14 6 -6 3 7 2 16 -1 19 -3 4 -6 -2 -5 -13z"/>
<path d="M1236 1742 c-3 -5 1 -9 9 -9 8 0 15 4 15 9 0 4 -4 8 -9 8 -6 0 -12
-4 -15 -8z"/>
<path d="M2166 1673 c-6 -14 -5 -15 5 -6 7 7 10 15 7 18 -3 3 -9 -2 -12 -12z"/>
<path d="M2166 1513 c-6 -14 -5 -15 5 -6 7 7 10 15 7 18 -3 3 -9 -2 -12 -12z"/>
<path d="M1236 1502 c-3 -5 1 -9 9 -9 8 0 15 4 15 9 0 4 -4 8 -9 8 -6 0 -12
-4 -15 -8z"/>
<path d="M2166 1033 c-6 -14 -5 -15 5 -6 7 7 10 15 7 18 -3 3 -9 -2 -12 -12z"/>
<path d="M2166 873 c-6 -14 -5 -15 5 -6 7 7 10 15 7 18 -3 3 -9 -2 -12 -12z"/>
<path d="M2166 393 c-6 -14 -5 -15 5 -6 7 7 10 15 7 18 -3 3 -9 -2 -12 -12z"/>
<path d="M2160 71 c0 -6 5 -13 10 -16 6 -4 8 -11 5 -16 -4 -5 -2 -9 4 -9 18 0
18 15 -1 33 -10 9 -18 13 -18 8z"/>
<path d="M314 40 c0 -13 4 -16 10 -10 7 7 7 13 0 20 -6 6 -10 3 -10 -10z"/>
</g>
</svg>
